<svg width="320" height="28" viewBox="0 0 320 28" fill="none" xmlns="http://www.w3.org/2000/svg">
<path d="M8 0.599968C4.2 1.69997 1.575 4.17497 0.499998 7.69997C-1.15 13.025 1.75 19.175 7.1 21.75C9.85 23.05 11.525 23.35 15.675 23.175C22.975 22.925 28.75 20.625 39.775 13.625C41.775 12.35 44.3 10.85 45.4 10.3C48.275 8.87497 54.725 6.14997 58.525 4.77497L61.8 3.57497L60.55 3.39997C57.475 2.99997 51.725 4.59997 44.1 7.99997C40.275 9.69997 39.5 10.125 32.75 14C28.525 16.45 24.075 18.525 21.75 19.125C18.025 20.1 12.15 19.35 9.325 17.525C6.6 15.775 4.45 12.75 4.1 10.225C3.65 6.99997 6.775 4.27497 11.2 4.04997C13.125 3.94997 13.375 3.99997 14.85 4.72497C16.75 5.64997 18.725 7.52497 19.525 9.17497C19.975 10.05 20.15 10.925 20.2 12.425C20.25 13.575 20.375 14.5 20.475 14.5C20.85 14.5 22.5 11.35 22.775 10.05C23.625 6.29997 21 2.69997 16.2 0.999968C14.25 0.299968 9.75 0.0749678 8 0.599968Z" fill="#692978"/>
<path d="M305 0.649977C299.2 2.17498 296.025 6.32498 297.35 10.575C297.725 11.825 299.225 14.5 299.525 14.5C299.625 14.5 299.75 13.575 299.8 12.425C299.85 10.925 300.025 10.05 300.475 9.17498C301.275 7.52498 303.25 5.64998 305.15 4.72498C306.625 3.99998 306.875 3.94998 308.8 4.04998C311.375 4.19998 313.125 4.89998 314.475 6.37498C315.025 6.97498 315.6 7.89998 315.775 8.47498C316.6 11.225 313.975 15.625 310.225 17.825C307.6 19.375 301.65 20.025 298.275 19.15C295.85 18.5 291.85 16.65 287.55 14.175C280.325 10.025 279.75 9.72498 275.9 7.99998C268.275 4.59998 262.525 2.99998 259.45 3.39998L258.2 3.57498L261.475 4.77498C265.275 6.14998 271.725 8.87498 274.6 10.3C275.7 10.85 278.225 12.35 280.225 13.625C291.15 20.55 297.025 22.9 304.15 23.175C308.275 23.35 310.275 23.025 312.9 21.75C318.225 19.175 321.125 12.975 319.5 7.69998C318.4 4.12498 315.725 1.62498 311.875 0.599977C310.25 0.149977 306.75 0.174977 305 0.649977Z" fill="#692978"/>
<path d="M233.3 2.025C222.675 2.625 209.15 5.05 197.625 8.4C195.975 8.875 191.875 10.15 188.5 11.25C169.95 17.2 162.525 18.7 152.7 18.45C150.4 18.4 148.55 18.375 148.575 18.4C148.625 18.45 150.05 18.675 151.75 18.925C156.15 19.55 167.9 19.525 173 18.925C184.2 17.55 193.675 15.325 206.925 10.975C213.65 8.775 216.625 8.075 223 7.15C233.35 5.65 243.8 5.9 249.5 7.775C254.1 9.275 257 11.775 257 14.2C257 15.2 256.875 15.45 255.925 16.35C254.3 17.925 252.5 18.375 248.125 18.375C245.025 18.375 244.45 18.3 243.125 17.775C241.025 16.925 239.275 15.1 237.95 12.375C236.8 9.975 236.675 9.975 235.875 12.45C234.7 16.025 236.725 19.4 241.375 21.625C244.35 23.05 246.25 23.525 249.875 23.675C254.7 23.9 257.775 22.9 260.475 20.275C264.3 16.525 263.5 11.675 258.325 7.55C254.3 4.3 249.275 2.475 243.2 2C239.775 1.725 238.175 1.725 233.3 2.025Z" fill="#692978"/>
<path d="M62.6 6C59.525 6.325 57.2 7.325 55.2 9.2C53.375 10.9 52.65 12.45 52.625 14.625C52.625 16.15 52.75 16.575 53.475 17.95C54.45 19.75 57.175 22.45 59.3 23.7C61.425 24.95 64.425 26.2 67.175 26.925C69.575 27.575 69.8 27.6 77 27.625C85.225 27.625 88.65 27.325 97.5 25.85C107.775 24.125 114.575 22.425 126.375 18.6C139.775 14.25 146.35 12.55 153.5 11.625C156.7 11.2 163.8 11.025 166.25 11.325C167.325 11.45 167.425 11.425 166.75 11.25C164.625 10.725 158.475 10.25 153.425 10.25C139.725 10.25 126.775 12.7 108.375 18.75C101.875 20.875 97.425 21.9 90.75 22.8C87.325 23.25 85.4 23.35 79.5 23.375C73 23.375 72.125 23.325 69.5 22.8C66.1 22.1 63.625 21.2 61.675 19.9C56.15 16.225 57.725 12.125 64.975 11.25C69.55 10.675 73.35 11.75 75.525 14.2C76.5 15.3 78.25 18.5 78.25 19.175C78.25 19.9 78.725 19.425 79.25 18.175C80.025 16.45 80.05 14.3 79.325 12.7C77.35 8.35 69.65 5.275 62.6 6Z" fill="#692978"/>
</svg>
